<?xml version="1.0" standalone="no"?>
<!DOCTYPE svg PUBLIC "-//W3C//DTD SVG 20010904//EN"
 "http://www.w3.org/TR/2001/REC-SVG-20010904/DTD/svg10.dtd">
<svg version="1.0" xmlns="http://www.w3.org/2000/svg"
 width="749.000000pt" height="1280.000000pt" viewBox="0 0 749.000000 1280.000000"
 preserveAspectRatio="xMidYMid meet">
<metadata>
Created by potrace 1.15, written by Peter Selinger 2001-2017
</metadata>
<g transform="translate(0.000000,1280.000000) scale(0.100000,-0.100000)"
fill="#000000" stroke="none">
<path d="M1235 12794 c-366 -42 -633 -204 -832 -506 -171 -259 -281 -606 -342
-1081 -53 -408 -70 -948 -38 -1222 126 -1076 454 -2248 764 -2730 60 -92 139
-190 180 -221 l34 -26 177 47 c97 25 476 121 842 212 366 91 671 167 678 169
9 3 12 42 12 156 0 214 17 541 35 683 29 224 71 373 175 620 110 261 154 421
181 655 15 129 6 490 -15 640 -127 899 -373 1604 -719 2065 -88 116 -268 291
-367 357 -167 110 -295 160 -448 177 -96 10 -247 13 -317 5z"/>
<path d="M5940 8599 c-250 -27 -511 -182 -731 -432 -378 -431 -655 -1163 -794
-2097 -32 -212 -44 -547 -26 -709 25 -228 77 -417 185 -669 99 -230 142 -383
171 -607 14 -115 33 -468 38 -719 l2 -119 320 -77 c176 -43 507 -126 735 -185
228 -59 468 -121 533 -138 l118 -30 46 40 c111 93 270 366 391 668 261 654
496 1693 553 2442 13 173 3 469 -27 813 -95 1095 -429 1663 -1060 1800 -115
25 -323 34 -454 19z"/>
<path d="M2690 6748 c-96 -33 -337 -109 -535 -169 -198 -61 -486 -149 -640
-196 -154 -47 -302 -92 -328 -100 l-48 -14 6 -67 c44 -459 138 -848 279 -1163
197 -436 493 -729 831 -820 107 -29 298 -31 400 -5 147 39 293 123 399 231
437 443 434 1254 -6 2060 -62 114 -160 278 -177 296 -3 4 -85 -20 -181 -53z"/>
<path d="M4533 2472 c-205 -340 -332 -660 -395 -991 -19 -98 -23 -150 -22
-336 0 -202 2 -229 26 -330 81 -343 255 -588 514 -722 130 -68 215 -88 374
-87 116 1 147 5 223 27 584 177 983 886 1087 1931 6 59 9 110 7 112 -4 4 -416
131 -907 279 -195 59 -456 140 -580 181 -124 41 -229 74 -235 74 -5 0 -47 -62
-92 -138z"/>
</g>
</svg>
